<?xml version="1.0" encoding="utf-8"?>
<!-- Generator: Adobe Illustrator 17.0.0, SVG Export Plug-In . SVG Version: 6.00 Build 0)  -->
<!DOCTYPE svg PUBLIC "-//W3C//DTD SVG 1.1//EN" "http://www.w3.org/Graphics/SVG/1.1/DTD/svg11.dtd">
<svg version="1.1" id="Слой_1" xmlns="http://www.w3.org/2000/svg" xmlns:xlink="http://www.w3.org/1999/xlink" x="0px" y="0px"
	 width="20px" height="20px" viewBox="0 0 20 20" style="enable-background:new 0 0 20 20;" xml:space="preserve">
<path style="fill:#5D6E79;" d="M16.18,5.95C16.05,2.69,13.33,0.04,10.06,0C10.03,0,10,0,9.97,0C9.95,0,9.92,0,9.89,0
	C6.62,0.04,3.9,2.69,3.77,5.95C3.72,7.12,4,8.22,4.52,9.17l0,0l5.46,10.26l0,0v0l5.46-10.26h0C15.95,8.22,16.22,7.12,16.18,5.95z
	 M9.97,10.63c-2.44,0-4.42-1.98-4.42-4.42c0-2.44,1.98-4.42,4.42-4.42c2.44,0,4.42,1.98,4.42,4.42
	C14.39,8.65,12.41,10.63,9.97,10.63z"/>
</svg>
