<?xml version="1.0" encoding="utf-8"?>
<!-- Generator: Adobe Illustrator 17.0.0, SVG Export Plug-In . SVG Version: 6.00 Build 0)  -->
<!DOCTYPE svg PUBLIC "-//W3C//DTD SVG 1.1//EN" "http://www.w3.org/Graphics/SVG/1.1/DTD/svg11.dtd">
<svg version="1.1" xmlns="http://www.w3.org/2000/svg" xmlns:xlink="http://www.w3.org/1999/xlink" x="0px" y="0px" width="100%"
	 height="auto" viewBox="0 0 574 560" style="enable-background:new 0 0 574 560;" xml:space="preserve">
<g id="Слой_2">
</g>
<g id="Слой_4">
	<path style="fill:#343435;stroke:#F0F0F1;stroke-width:2.0081;stroke-miterlimit:10;" d="M342.34,445.03c0,0,0-184.33,0-233.3
		c0-48.96-15.98-61.99-23.52-68.96c-8.48-7.84-12-11.84-12.32-14.56c-0.32-2.72,0-84.17,0-84.17h2.56V29.32h-2.88v-9.6h-17.76h-0.48
		h-17.76v9.6h-2.88v14.72h2.56c0,0,0.32,81.45,0,84.17c-0.32,2.72-3.84,6.72-12.32,14.56c-7.54,6.97-23.52,20-23.52,68.96
		c0,48.96,0,233.3,0,233.3s-0.32,9.28,4.16,12.48c4.45,3.18,14.62,9.22,50,8.65c35.38,0.57,45.55-5.47,50.01-8.65
		C342.66,454.31,342.34,445.03,342.34,445.03z"/>
	<path style="fill:#F0F0F1;" d="M270.66,143.13c0,0-26.96,14.98-26.96,72.63h4.49C248.2,215.76,245.95,170.08,270.66,143.13z"/>
	<polygon style="fill:#F0F0F1;" points="243.47,320.59 247.68,320.59 247.68,450.88 243.94,450.88 	"/>
	<g>
		<path style="fill:#4C4C4C;" d="M146.09,459.73c0.28-7.96,0-63.44,0-63.44s28.97-12.1,27.03-46.28
			c-1.52-26.65-6.74-37.93-7.21-39.26c-6.25,0-20.05-0.08-22.33-0.09v0c0,0-0.06,0-0.17,0c-0.1,0-0.16,0-0.16,0v0
			c-2.35,0.01-16.97,0.09-23.23,0.09c-0.48,1.33-5.97,10.39-7.49,37.03c-1.95,34.18,27.31,48.51,27.31,48.51s-0.28,55.48,0,63.44
			c0.29,7.97-23.61,8.82-23.61,8.82v2.85h26.17h1.14h26.17v-2.85C169.7,468.55,145.8,467.69,146.09,459.73z"/>
		<path style="fill:#F0F0F1;" d="M168.89,342.89h-25.15h-0.27l-26.56-0.18c-4.5,30.71,15.88,48.62,26.7,48.62
			C154.42,391.34,172.43,375.99,168.89,342.89z"/>
	</g>
	<g>
		<path style="fill:#4C4C4C;" d="M438.29,459.73c0.28-7.96,0-63.44,0-63.44s28.97-12.1,27.03-46.28
			c-1.52-26.65-6.74-37.93-7.21-39.26c-6.25,0-20.05-0.08-22.33-0.09v0c0,0-0.06,0-0.17,0c-0.1,0-0.16,0-0.16,0v0
			c-2.35,0.01-16.97,0.09-23.23,0.09c-0.48,1.33-5.97,10.39-7.49,37.03c-1.95,34.18,27.31,48.51,27.31,48.51s-0.28,55.48,0,63.44
			c0.29,7.97-23.61,8.82-23.61,8.82v2.85h26.17h1.14h26.17v-2.85C461.9,468.55,438,467.69,438.29,459.73z"/>
		<path style="fill:#FFFFE3;" d="M461.1,342.89h-25.15h-0.27l-26.56-0.18c-4.5,30.71,15.88,48.62,26.7,48.62
			C446.63,391.34,464.63,375.99,461.1,342.89z"/>
	</g>
	<g>
		<path style="fill:#4C4C4C;" d="M351.89,490.97c0.45-12.62,0-100.55,0-100.55s45.91-19.18,42.83-73.34
			c-2.4-42.23-10.67-60.12-11.42-62.22c-9.9,0-31.77-0.13-35.39-0.14v0c0,0-0.1,0-0.27,0c-0.16,0-0.25,0-0.25,0v0
			c-3.73,0.02-26.89,0.14-36.82,0.14c-0.76,2.11-9.47,16.46-11.87,58.69c-3.09,54.18,43.28,76.88,43.28,76.88s-0.45,87.92,0,100.55
			c0.46,12.62-37.42,13.98-37.42,13.98v4.51h41.48h1.81h41.48v-4.51C389.31,504.94,351.44,503.59,351.89,490.97z"/>
		<path style="fill:#720C24;" d="M388.04,305.8h-39.86h-0.42l-42.09-0.28c-7.13,48.67,25.17,77.06,42.31,77.06
			C365.1,382.59,393.64,358.25,388.04,305.8z"/>
	</g>
	<g>
		<path style="fill:#4C4C4C;" d="M236.31,490.97c0.45-12.62,0-100.55,0-100.55s45.91-19.18,42.83-73.34
			c-2.4-42.23-10.67-60.12-11.42-62.22c-9.9,0-31.77-0.13-35.39-0.14v0c0,0-0.1,0-0.27,0c-0.16,0-0.25,0-0.25,0v0
			c-3.73,0.02-26.89,0.14-36.82,0.14c-0.76,2.11-9.47,16.46-11.87,58.69c-3.09,54.18,43.28,76.88,43.28,76.88s-0.45,87.92,0,100.55
			c0.46,12.62-37.42,13.98-37.42,13.98v4.51h41.48h1.81h41.48v-4.51C273.73,504.94,235.86,503.59,236.31,490.97z"/>
		<path style="fill:#D33392;" d="M272.46,305.8H232.6h-0.42l-42.09-0.28c-7.13,48.67,25.17,77.06,42.31,77.06
			C249.52,382.59,278.06,358.25,272.46,305.8z"/>
	</g>
</g>
</svg>
