<?xml version="1.0" encoding="utf-8"?>
<!-- Generator: Adobe Illustrator 17.0.0, SVG Export Plug-In . SVG Version: 6.00 Build 0)  -->
<!DOCTYPE svg PUBLIC "-//W3C//DTD SVG 1.1//EN" "http://www.w3.org/Graphics/SVG/1.1/DTD/svg11.dtd">
<svg version="1.1" xmlns="http://www.w3.org/2000/svg" xmlns:xlink="http://www.w3.org/1999/xlink" x="0px" y="0px" width="100%"
	 height="auto" viewBox="0 0 574 560" style="enable-background:new 0 0 574 560;" xml:space="preserve">
<g id="Слой_2">
</g>
<g id="Слой_1">
	<path style="fill:#39291C;" d="M289.8,462.39c-11.34,0.18-23.32-0.92-34-3.44l-0.61-0.14c-3.54-0.83-9.48-2.23-13.12-9.64
		c-3.34-6.8-4.02-17.5-2.13-33.66c4.69-40.23,4.86-72.17,0.55-100.51c-1.83-12.02-5.76-23.7-9.56-35
		c-2.38-7.08-4.84-14.39-6.76-21.72c-4.47-17.02-6.14-32.15-8.07-49.67l-0.54-4.85c-0.06-0.53-5.82-53.47,4.99-67.29l3.87-4.95
		l6.28,0.29c2.76,0.13,6.46,0.44,11.14,0.83c12.45,1.04,31.25,2.62,53.85,2.62c18.86,0,37-1.13,53.91-3.36l6.4-0.84l4.29,4.83
		c6.05,6.82,10.91,19.76,5.5,67.87l-0.53,4.8c-1.95,17.55-3.64,32.7-8.14,49.72c-1.93,7.31-4.4,14.59-6.79,21.64
		c-3.85,11.38-7.82,23.09-9.66,35.09c-4.35,28.32-4.18,60.26,0.55,100.51c1.9,16.16,1.21,26.86-2.16,33.67
		c-3.67,7.4-9.64,8.79-13.2,9.62l-0.63,0.15c-8.95,2.24-18.77,2.51-27.92,3.13C294.84,462.25,292.34,462.35,289.8,462.39z"/>
	<path style="fill:#51504F;" d="M290.12,456.72c-2.67,0.08-5.33,0.06-7.93-0.12c-6.48-0.46-12.79-1-19.11-1.93
		c-3.84-0.56-7.78-1.44-11.13-3.5c-1.86-1.15-3.45-2.7-4.42-4.67c-2.76-5.63-3.27-15.53-1.55-30.27
		c4.75-40.79,4.92-73.24,0.52-102.13c-1.91-12.55-5.93-24.49-9.81-36.03c-2.35-6.99-4.78-14.21-6.64-21.32
		c-4.36-16.58-6-31.52-7.91-48.8l-0.54-4.85c-1.85-16.59-3.37-53.79,3.74-62.87l1.94-2.47l3.14,0.15c2.65,0.12,6.31,0.43,10.93,0.82
		c12.54,1.05,31.5,2.64,54.34,2.64c19.13,0,37.53-1.15,54.7-3.41l3.2-0.42l2.14,2.41c4.59,5.17,9.19,17.02,4,63.15l-0.53,4.8
		c-1.93,17.33-3.59,32.26-7.98,48.84c-1.88,7.13-4.33,14.33-6.69,21.3c-3.92,11.58-7.97,23.54-9.89,36.06
		c-4.44,28.88-4.27,61.34,0.52,102.14c1.73,14.73,1.22,24.63-1.57,30.26c-2.39,4.83-5.97,5.66-9.13,6.4l-0.64,0.15
		c-6.7,1.56-13.55,2.46-20.41,2.9C299.08,456.21,294.58,456.59,290.12,456.72z"/>
	<path style="fill:#FFAB24;" d="M347.53,164.57c-11.42,0.01-31.62,0.91-56.86,1.23c-25.61-0.33-46.1-1.22-57.69-1.23
		c-6.94,0-9.89,2.38-9.88,8.8c0.04,26.45,3.19,53.28,10.82,78.87c2.01,6.74,4.65,13.66,7.21,20.37
		c4.39,11.49,8.92,23.36,11.12,36.08c4.95,28.66,4.78,60.76-0.54,101.01c-2.14,16.19-0.6,23.17,1.07,26.17
		c4.31,7.74,18.16,6.77,26.1,7.13c3.92,0.17,7.86,0.25,11.79,0.27c3.88-0.02,7.76-0.09,11.63-0.27c7.83-0.35,21.48,0.61,25.73-7.13
		c1.65-3.01,3.16-9.99,1.06-26.17c-5.25-40.25-5.42-72.35-0.54-101.01c2.17-12.72,6.63-24.59,10.96-36.08
		c2.53-6.72,5.13-13.63,7.11-20.37c7.52-25.59,10.62-52.43,10.67-78.87C357.28,166.96,354.37,164.57,347.53,164.57z"/>
	<path style="fill:#FFFFFF;" d="M256.41,140.41c0,0-14.88,42.6,5.41,115.62c0,0-29.75-61.53-18.26-115.62H256.41z"/>
	<path style="fill:#F9F9F9;" d="M389.09,142.19c-0.01-0.12-0.02-0.24-0.03-0.36c-0.05-0.58-0.12-1.15-0.22-1.72
		c-0.02-0.1-0.04-0.2-0.06-0.3c-0.1-0.53-0.21-1.06-0.34-1.58c-0.02-0.07-0.03-0.13-0.05-0.2c-0.14-0.56-0.31-1.1-0.49-1.64
		c-0.04-0.12-0.08-0.23-0.12-0.35c-0.19-0.54-0.39-1.07-0.62-1.59c-0.01-0.01-0.01-0.03-0.02-0.04c-0.04-4.08-1.12-7.94-2.98-11.34
		c-1.09-8.87-7.02-16.41-15.06-19.74c-4.45-4.41-10.51-7.17-17.15-7.17c-1.49,0-2.95,0.15-4.37,0.42
		c-4.16-7.73-12.35-13.08-21.6-13.08c-0.98,0-1.96,0.07-2.91,0.19c-4.29-7.24-12.2-12.19-21.09-12.19c-2.99,0-5.87,0.56-8.55,1.58
		c-3.43-1.86-7.34-2.92-11.45-2.92c-7.99,0-15.18,3.99-19.68,10.05c-0.52,0.23-1.03,0.48-1.53,0.75c-1.96-0.52-4.02-0.8-6.12-0.8
		c-12.04,0-22.29,9.06-24.18,20.64c-1.63,1.18-3.12,2.54-4.42,4.07c-0.46-0.03-0.93-0.04-1.39-0.04c-12.55,0-23.14,9.83-24.38,22.1
		c-3,4.07-4.79,9.06-4.79,14.4c0,4.89,1.5,9.49,4.05,13.35c-0.05,0.66-0.07,1.32-0.05,1.99c0.12,5.36,1.08,8.01,3.45,12.73
		c1.76,3.52,5.66,6.97,8.95,8.97c4.27,2.59,7.86,3.13,12.77,3.46c2.17-0.29,4.34-0.58,6.51-0.88c0.84-0.24,1.66-0.52,2.45-0.83
		c4.49,4.72,10.8,7.71,17.7,7.71c5.17,0,10-1.69,13.99-4.51c3.99,2.83,8.83,4.51,14.01,4.51c3.04,0,5.96-0.58,8.67-1.63
		c2.7,1.05,5.63,1.63,8.67,1.63c6.59,0,12.63-2.71,17.07-7.06c4.26,3.56,9.71,5.73,15.6,5.73c7.73,0,14.71-3.73,19.22-9.46
		c1.96,0.52,4.01,0.8,6.11,0.8c8.82,0,16.67-4.86,20.99-12.01c7.96-4.08,13.51-12.4,13.51-21.82
		C389.17,143.39,389.14,142.79,389.09,142.19z"/>
</g>
</svg>
