<?xml version="1.0" encoding="utf-8"?>
<!-- Generator: Adobe Illustrator 17.0.0, SVG Export Plug-In . SVG Version: 6.00 Build 0)  -->
<!DOCTYPE svg PUBLIC "-//W3C//DTD SVG 1.1//EN" "http://www.w3.org/Graphics/SVG/1.1/DTD/svg11.dtd">
<svg version="1.1" xmlns="http://www.w3.org/2000/svg" xmlns:xlink="http://www.w3.org/1999/xlink" x="0px" y="0px" width="100%"
	 height="auto" viewBox="0 0 574 560" style="enable-background:new 0 0 574 560;" xml:space="preserve">
<g id="Слой_2">
</g>
<g id="Слой_3">
	<path style="fill:#2B2910;" d="M162.85,264.81c0-13.44-7.94-25.08-12.83-33.63C145.14,222.63,134.75,127,134.75,127h-16.8h-0.61
		h-16.8c0,0-10.38,95.63-15.27,104.18c-4.89,8.55-12.83,20.48-12.83,33.92c0,13.44,2.44,165.38,1.83,170.26
		c-0.61,4.89,4.89,9.09,17.71,10.31c12.83,1.22,19.22,1.8,25.65,1.8s12.83-0.63,25.65-1.85c12.83-1.22,18.32-5.51,17.71-10.39
		C160.41,430.34,162.85,278.25,162.85,264.81z"/>
	<path style="fill:#D8AF93;" d="M119.33,266.18c-17.75,0-47.18-0.04-47.18-0.04l2.06,137.54c2.75,2.52,34.16,3.51,45.58,3.5
		c10.33-0.01,38.97-0.98,41.46-3.5l1.6-137.54C162.85,266.14,137.88,266.18,119.33,266.18z"/>
	<path style="fill:#2B2910;" d="M137.43,123.35c0,2.02-1.44,3.65-3.21,3.65h-32.98c-1.77,0-3.21-1.64-3.21-3.65l0,0
		c0-2.02,1.44-3.65,3.21-3.65h32.98C135.99,119.69,137.43,121.33,137.43,123.35L137.43,123.35z"/>
	<polygon style="fill:#F9F9F9;" points="132.5,108 117.04,108 101.58,108 97,111.66 97,116 117.04,116 137,116 137,111.66 	"/>
	<polygon style="fill:#D8AF93;" points="110,107.79 124,107.87 124,196 110,196 	"/>
	<rect x="101" y="116" style="fill:#2B2910;" width="33" height="4"/>
	<rect x="110" y="116" style="fill:#BA977F;" width="14" height="4"/>
	<path style="fill:#2B2910;" d="M280.19,263.65c0-14.67-8.67-27.49-14-36.82S249.53,113,249.53,113h-18.33h-0.67h-18.33
		c0,0-11.33,104.49-16.67,113.82c-5.33,9.33-14,22.41-14,37.08c0,14.67,2.67,180.54,2,185.87c-0.67,5.33,5.33,9.94,19.33,11.27
		c14,1.33,20.98,1.97,28,1.97c7.02,0,14-0.68,28-2.02c14-1.33,20-6.01,19.33-11.34C277.53,444.32,280.19,278.32,280.19,263.65z"/>
	<path style="fill:#CBC8C7;" d="M232.69,265.15c-19.38,0-51.5-0.04-51.5-0.04l2.25,150.12c3,2.75,37.29,3.83,49.75,3.82
		c11.27-0.01,42.54-1.07,45.25-3.82l1.75-150.12C280.19,265.11,252.94,265.15,232.69,265.15z"/>
	<path style="fill:#2B2910;" d="M252.44,109.61c0,2-1.57,3.62-3.5,3.62h-36c-1.93,0-3.5-1.62-3.5-3.62l0,0c0-2,1.57-3.62,3.5-3.62
		h36C250.88,105.98,252.44,107.6,252.44,109.61L252.44,109.61z"/>
	<polygon style="fill:#F9F9F9;" points="247.07,92 230.19,92 213.32,92 208,96.48 208,101 230.19,101 252,101 252,96.48 	"/>
	<polygon style="fill:#CBC8C7;" points="222,91.9 238,91.98 238,188 222,188 	"/>
	<rect x="212" y="101" style="fill:#2B2910;" width="37" height="5"/>
	<rect x="222" y="101" style="fill:#939393;" width="16" height="5"/>
	<path style="fill:#2B2910;" d="M393.38,263.65c0-14.67-8.67-27.49-14-36.82S362.72,113,362.72,113h-18.33h-0.67h-18.33
		c0,0-11.33,104.49-16.67,113.82c-5.33,9.33-14,22.41-14,37.08c0,14.67,2.67,180.54,2,185.87c-0.67,5.33,5.33,9.94,19.33,11.27
		c14,1.33,20.98,1.97,28,1.97c7.02,0,14-0.68,28-2.02c14-1.33,20-6.01,19.33-11.34C390.72,444.32,393.38,278.32,393.38,263.65z"/>
	<path style="fill:#9ED8D2;" d="M345.88,265.15c-19.38,0-51.5-0.04-51.5-0.04l2.25,150.12c3,2.75,37.29,3.83,49.75,3.82
		c11.27-0.01,42.54-1.07,45.25-3.82l1.75-150.12C393.38,265.11,366.13,265.15,345.88,265.15z"/>
	<path style="fill:#2B2910;" d="M365.63,109.61c0,2-1.57,3.62-3.5,3.62h-36c-1.93,0-3.5-1.62-3.5-3.62l0,0c0-2,1.57-3.62,3.5-3.62
		h36C364.07,105.98,365.63,107.6,365.63,109.61L365.63,109.61z"/>
	<polygon style="fill:#F9F9F9;" points="360.26,92 343.38,92 326.51,92 321,96.48 321,101 343.38,101 365,101 365,96.48 	"/>
	<polygon style="fill:#9ED8D2;" points="335,91.9 351,91.98 351,188 335,188 	"/>
	<rect x="325" y="101" style="fill:#2B2910;" width="37" height="5"/>
	<rect x="335" y="101" style="fill:#8AB7B1;" width="16" height="5"/>
	<path style="fill:#2B2910;" d="M502.35,264.8c0-13.44-7.94-25.08-12.83-33.63C484.64,222.62,474.25,127,474.25,127h-16.8h-0.61
		h-16.8c0,0-10.38,95.62-15.27,104.17c-4.89,8.55-12.83,20.48-12.83,33.92c0,13.44,2.44,165.37,1.83,170.26
		c-0.61,4.89,4.89,9.09,17.71,10.31c12.83,1.22,19.22,1.8,25.65,1.8s12.83-0.63,25.65-1.85c12.83-1.22,18.32-5.51,17.71-10.39
		C499.9,430.32,502.35,278.24,502.35,264.8z"/>
	<path style="fill:#86A2BC;" d="M458.83,266.18c-17.75,0-47.18-0.04-47.18-0.04l2.06,137.53c2.75,2.52,34.16,3.51,45.58,3.5
		c10.33-0.01,38.97-0.98,41.45-3.5L502.5,266C502.5,266,477.38,266.18,458.83,266.18z"/>
	<path style="fill:#2B2910;" d="M476.93,123.37c0,2.01-1.44,3.63-3.21,3.63h-32.98c-1.77,0-3.21-1.63-3.21-3.63l0,0
		c0-2.01,1.44-3.63,3.21-3.63h32.98C475.49,119.74,476.93,121.36,476.93,123.37L476.93,123.37z"/>
	<polygon style="fill:#F9F9F9;" points="472,107 456.54,107 441.08,107 436,111.66 436,115 456.54,115 477,115 477,111.66 	"/>
	<polygon style="fill:#86A2BC;" points="449,106.96 464,107.03 464,195 449,195 	"/>
	<rect x="440" y="115" style="fill:#2B2910;" width="34" height="5"/>
	<rect x="449" y="115" style="fill:#657F93;" width="15" height="5"/>
</g>
</svg>
